<?xml version="1.0" standalone="no"?>
<!DOCTYPE svg PUBLIC "-//W3C//DTD SVG 1.1//EN" "http://www.w3.org/Graphics/SVG/1.1/DTD/svg11.dtd" >
<svg xmlns="http://www.w3.org/2000/svg">
<metadata>Generated by IcoMoon</metadata>
<defs>
<font id="jet-icons" horiz-adv-x="1024">
<font-face units-per-em="1024" ascent="960" descent="-64" />
<missing-glyph horiz-adv-x="1024" />
<glyph unicode="&#x20;" horiz-adv-x="512" d="" />
<glyph unicode="&#xe600;" glyph-name="remove" d="M810.667 405.333h-597.333v85.333h597.333v-85.333z" />
<glyph unicode="&#xe601;" glyph-name="add2" d="M810.667 405.333h-256v-256h-85.333v256h-256v85.333h256v256h85.333v-256h256v-85.333z" />
<glyph unicode="&#xe602;" glyph-name="exit" d="M430.293 295.040l60.373-60.373 213.333 213.333-213.333 213.333-60.373-60.373 110.293-110.293h-412.587v-85.333h412.587l-110.293-110.293zM810.667 832h-597.333c-47.147 0-85.333-38.187-85.333-85.333v-170.667h85.333v170.667h597.333v-597.333h-597.333v170.667h-85.333v-170.667c0-47.147 38.187-85.333 85.333-85.333h597.333c47.147 0 85.333 38.187 85.333 85.333v597.333c0 47.147-38.187 85.333-85.333 85.333z" />
<glyph unicode="&#xe603;" glyph-name="add" d="M960 576h-320v320c0 35.2-28.8 64-64 64h-128c-35.2 0-64-28.8-64-64v-320h-320c-35.2 0-64-28.8-64-64v-128c0-35.2 28.8-64 64-64h320v-320c0-35.2 28.8-64 64-64h128c35.2 0 64 28.8 64 64v320h320c35.2 0 64 28.8 64 64v128c0 35.2-28.8 64-64 64z" />
<glyph unicode="&#xe604;" glyph-name="add3" d="M792 808h-560.001c-44.201 0-80.001-35.801-80.001-80.001v-560.001c0-44.201 35.801-80.001 80.001-80.001h560.001c44.201 0 80.001 35.801 80.001 80.001v560.001c0 44.201-35.801 80.001-80.001 80.001zM712 408h-160v-160h-80.001v160h-160v80.001h160v160h80.001v-160h160v-80.001z" />
<glyph unicode="&#xe605;" glyph-name="expand" d="M236.544 610.816l290.816-282.624 291.84 282.624 15.36-9.216-307.2-297.984-307.2 297.984 16.384 9.216z" />
<glyph unicode="&#xe606;" glyph-name="checkbox" d="M910.222 960h-796.444c-62.578 0-113.778-51.2-113.778-113.778v-796.444c0-62.578 51.2-113.778 113.778-113.778h796.444c62.578 0 113.778 51.2 113.778 113.778v796.444c0 62.578-51.2 113.778-113.778 113.778v0zM398.222 163.556l-284.444 284.444 79.644 79.644 204.8-204.8 432.356 432.356 79.644-79.644-512-512z" />
<glyph unicode="&#xe607;" glyph-name="checkbox-outline" d="M910.222 846.222v-796.444h-796.444v796.444h796.444zM910.222 960h-796.444c-62.578 0-113.778-51.2-113.778-113.778v-796.444c0-62.578 51.2-113.778 113.778-113.778h796.444c62.578 0 113.778 51.2 113.778 113.778v796.444c0 62.578-51.2 113.778-113.778 113.778v0 0z" />
<glyph unicode="&#xe608;" glyph-name="arrow-down" d="M793.2 640l38.8-41.4-320-342.6-320 342.6 38.6 41.4 281.4-301z" />
<glyph unicode="&#xe609;" glyph-name="arrow-up" d="M793.2 256l38.8 41.4-320 342.6-320-342.6 38.6-41.4 281.4 301z" />
<glyph unicode="&#xe60a;" glyph-name="arrow-left" d="M704 745.2l-41.4 38.8-342.6-320 342.6-320 41.4 38.6-301 281.4z" />
<glyph unicode="&#xe60b;" glyph-name="arrow-right" d="M320 182.8l41.4-38.8 342.6 320-342.6 320-41.4-38.6 301-281.4z" />
<glyph unicode="&#xe60c;" glyph-name="key" d="M384 874.667c-166.4 0-298.667-132.267-298.667-298.667s132.267-298.667 298.667-298.667c166.4 0 298.667 132.267 298.667 298.667s-132.267 298.667-298.667 298.667zM320 533.333c-59.733 0-106.667 46.933-106.667 106.667s46.933 106.667 106.667 106.667c59.733 0 106.667-46.933 106.667-106.667s-46.933-106.667-106.667-106.667zM640 490.667l-170.667-170.667 85.333-85.333h85.333v-85.333h85.333v-85.333l29.867-29.867c8.533-8.533 17.067-12.8 29.867-12.8h110.933c25.6 0 42.667 17.067 42.667 42.667v110.933c0 12.8-4.267 21.333-12.8 29.867l-285.867 285.867z" />
<glyph unicode="&#xe60d;" glyph-name="book" d="M815.961 850.789v-49.414h-49.438v-49.463h49.438v-692.138h-593.262c0 0-49.438 0-49.438 49.438v666.975c0 0.148-0.024 0.297-0.024 0.444-0.864 33.494 19.948 57.2 38.438 65.407 18.243 8.948 33.668 8.652 35.744 8.751h568.542zM247.32 751.912c0.050 0 0.098 0 0.098 0h469.666v49.463h-469.666c-0.050-0.148-0.791 0.050-3.683-0.47-2.843-0.47-6.773-1.484-9.987-3.090-6.254-4.226-10.234-5.191-11.049-21.185 0.371-12.36 3.312-15.054 6.724-18.367 3.56-3.115 9.912-5.241 14.312-5.908 2.348-0.42 3.288-0.444 3.584-0.444zM272.137 109.211h494.385v593.262h-494.385v-593.262zM321.527 306.966v49.438h296.631v-49.438h-296.631zM321.527 504.719v49.438h395.508v-49.438h-395.508zM321.527 405.842v49.438h395.508v-49.438h-395.508z" />
<glyph unicode="&#xe60e;" glyph-name="open-external" d="M819.341 799.247h-614.678c-48.518 0-87.81-39.297-87.81-87.81v-526.869c0-48.517 39.297-87.81 87.81-87.81h175.626v87.81h-175.626v439.057h614.678v-439.057h-175.626v-87.81h175.626c48.517 0 87.81 39.297 87.81 87.81v526.869c0 48.517-39.297 87.81-87.81 87.81zM512 535.81l-175.626-175.623h131.717v-263.431h87.81v263.431h131.717l-175.623 175.623z" />
<glyph unicode="&#xe60f;" glyph-name="data" d="M554.188 865.656v-126.563c143.438-21.094 253.125-143.438 253.125-291.094 0-37.969-8.438-71.719-21.094-105.469l109.688-63.281c25.313 50.625 37.969 109.688 37.969 172.969 0 215.156-164.531 392.344-379.688 413.438v0zM512 152.687c-164.531 0-295.313 130.781-295.313 295.313 0 147.656 109.688 270 253.125 291.094v126.563c-215.156-16.875-379.688-198.281-379.688-417.656 0-232.031 189.844-421.875 421.875-421.875 139.219 0 261.563 67.5 341.719 172.969l-109.688 63.281c-54.844-67.5-139.219-109.688-232.031-109.688v0z" />
<glyph unicode="&#xe610;" glyph-name="cross" d="M830.212 696.015c9.722-9.722 9.722-25.656 0-35.377l-194.935-194.748c-9.722-9.691-9.722-25.656 0-35.409l194.842-194.811c9.722-9.722 9.722-25.656 0-35.409l-70.974-70.726c-9.751-9.691-25.718-9.691-35.471 0l-194.78 194.78c-9.722 9.722-25.717 9.722-35.441 0l-194.934-194.655c-9.722-9.722-25.717-9.722-35.441 0l-70.88 70.818c-9.722 9.722-9.722 25.656 0 35.409l194.996 194.717c9.722 9.691 9.722 25.656 0 35.409l-194.842 194.842c-9.751 9.722-9.751 25.687 0 35.409l70.943 70.756c9.784 9.691 25.717 9.691 35.471-0.033l194.748-194.748c9.751-9.751 25.718-9.751 35.441-0.033l194.934 194.655c9.691 9.691 25.656 9.691 35.441 0l70.88-70.85z" />
<glyph unicode="&#xe611;" glyph-name="clock" d="M799.895 452.577c0 20.137-16.117 36.451-35.984 36.451h-220.201v219.881c0 20.205-16.395 36.594-36.588 36.594-20.205 0-36.6-16.388-36.6-36.594v-256.191c0-20.212 16.395-36.6 36.6-36.6h256.808c19.846 0 35.963 16.321 35.963 36.458zM909.785 452.807c0-222.383-180.25-402.661-402.586-402.661-222.349 0-402.586 180.278-402.586 402.661s180.236 402.661 402.586 402.661c222.336 0 402.586-180.278 402.586-402.661zM982.885 452.807c0 262.72-212.972 475.693-475.685 475.693-262.728 0-475.7-212.972-475.7-475.693s212.972-475.693 475.7-475.693c262.713 0 475.685 212.972 475.685 475.693z" />
<glyph unicode="&#xe612;" glyph-name="calendar" d="M447 470.8h130v-130h-130v130zM650.8 470.8h130v-130h-130v130zM243.4 273.2h130v-130h-130v130zM447 273.2h130v-130h-130v130zM650.8 273.2h130v-130h-130v130zM311.6 712.4v0c-32 0-58.2 26.2-58.2 58.2v131c0 32 26.2 58.2 58.2 58.2v0c32 0 58.2-26.2 58.2-58.2v-131.2c0-31.8-26.2-58-58.2-58zM861.4 836.2h-66v-79.4c0-49-39.4-89-87.6-89h-23.2c-48.2 0-87.6 40-87.6 89v79.4h-180.8v-79.4c0-49-39.4-89-87.6-89h-23.2c-48.2 0-87.6 40-87.6 89v79.4h-50.6c-54.2 0-98.6-45-98.6-100v-700c0-55 44.4-100 98.6-100h694.4c54.2 0 98.6 45 98.6 100v700c-0.2 55-44.6 100-98.8 100zM844.6 130.6c0-34.2-27.6-62.2-61.2-62.2h-538c-33.6 0-61.2 28-61.2 62.2v352.8c0 34.2 27.6 64.6 61.2 64.6h538c33.6 0 61.2-30.4 61.2-64.6v-352.8zM696.6 712.4v0c-32 0-58.2 26.2-58.2 58.2v131c0 32 26.2 58.2 58.2 58.2v0c32 0 58.2-26.2 58.2-58.2v-131.2c0-31.8-26.2-58-58.2-58z" />
<glyph unicode="&#xe613;" glyph-name="question" d="M515.704 682.918c-43.369 0-79.571-15.149-108.544-39.755s-45.929-44.574-50.808-104.809h88.456c1.928 30.118 9.126 37.075 21.564 48.52s27.889 18.613 46.411 18.613c18.522 0 33.611-5.24 45.297-17.197 11.716-11.927 17.559-26.564 17.559-44.574s-5.632-32.949-16.806-45.146l-53.368-53.278c-15.601-15.601-18.854-28.13-23.492-37.617s-0.090-23.913-0.090-43.4v-36.744h60.235v25.058c0 19.456 8.704 34.575 17.498 45.297 3.373 3.885 10.029 8.644 15.691 14.246 5.602 5.632 13.493 12.198 21.534 19.757 8.041 7.529 15.059 13.764 19.938 18.643 4.849 4.849 12.168 13.161 21.444 24.847 16.053 19.486 24.245 43.851 24.245 73.096 0 42.406-13.553 75.384-40.84 99.057-27.347 23.582-62.554 35.388-105.924 35.388zM510.193 293.045c-15.36 0-28.491-5.391-39.484-16.083-10.963-10.722-16.444-23.492-16.444-38.37 0-14.848 5.602-27.528 16.806-38.008s24.486-15.691 39.816-15.691c15.36 0 28.521 5.361 39.484 16.053 10.933 10.722 16.444 23.522 16.444 38.37s-5.632 27.528-16.836 38.039c-11.144 10.481-24.425 15.691-39.785 15.691zM512 960c-282.775 0-512-229.225-512-512s229.225-512 512-512 512 229.225 512 512-229.225 512-512 512zM512 26.353c-232.87 0-421.647 188.777-421.647 421.647s188.777 421.647 421.647 421.647c232.87 0 421.647-188.777 421.647-421.647s-188.777-421.647-421.647-421.647z" />
<glyph unicode="&#xe614;" glyph-name="tick" d="M863.37 767.953c-10.666 10.74-28.031 10.74-38.624 0l-407.031-405.137c-10.666-10.811-28.067-10.811-38.661 0l-178.342 181.618c-5.28 5.389-12.195 8.044-19.149 8.081-7.026 0.038-14.161-2.621-19.512-8.081l-78.815-70.841c-5.242-5.389-8.081-12.122-8.081-19.149 0-7.061 2.838-14.453 8.119-19.804l179.835-188.717c10.631-10.775 28.067-28.249 38.661-38.951l77.321-77.941c10.631-10.666 27.996-10.666 38.661 0l522.978 522.030c10.666 10.703 10.666 28.286 0 38.989l-77.359 77.905z" />
<glyph unicode="&#xe615;" glyph-name="edit" d="M980.652 855.124l-79.517 79.408c-8.21 8.21-19.006 12.324-29.782 12.324s-21.554-4.096-29.764-12.306l-63.606-63.424 139.063-138.827 63.606 63.406c16.438 16.42 16.438 43.054 0 59.42zM365.087 458.995l139.082-138.845 383.113 382.402-139.082 138.845zM335.068 429.285l-29.692-168.428 168.773 29.6zM719.546 185.802h-524.397v524.397h370.078l91.204 91.022h-493.45c-32.386 0-58.874-26.487-58.874-58.874v-588.714c0-32.386 26.487-58.874 58.874-58.874h588.714c32.386 0 58.874 26.487 58.874 58.874v420.905l-91.022-90.859v-297.879z" />
<glyph unicode="&#xe616;" glyph-name="new" horiz-adv-x="1083" d="M728.54 843.508h-426.050l-179.287-160.355v-628.482h426.337v56.404h-362.859v510.638h183.93v165.426h294.451v-174.677h63.476zM638.949 353.087v174.214h135.242v-174.214h185.932v-126.346h-185.93v-174.247h-135.242v174.247h-185.606v126.346z" />
<glyph unicode="&#xe617;" glyph-name="pin" d="M713.771 777.771c-16.597 16.683-43.563 16.768-60.331 0.171-4.437-4.437-7.509-9.685-9.6-15.147-35.499-74.069-74.581-115.84-123.904-140.501-55.339-27.307-118.869-46.293-221.269-46.293-5.547 0-11.093-1.067-16.299-3.243-10.453-4.352-18.731-12.672-23.083-23.083-4.309-10.411-4.309-22.187 0-32.597 2.176-5.248 5.291-9.984 9.259-13.909l138.368-138.368-193.579-258.133 258.133 193.579 138.325-138.325c3.925-4.011 8.661-7.083 13.909-9.259 5.205-2.176 10.752-3.328 16.299-3.328s11.093 1.152 16.299 3.328c10.453 4.352 18.773 12.587 23.083 23.083 2.176 5.163 3.285 10.752 3.285 16.256 0 102.4 18.944 165.931 46.208 220.416 24.619 49.323 66.389 88.405 140.501 123.904 5.504 2.091 10.709 5.163 15.104 9.6 16.597 16.768 16.512 43.733-0.171 60.331l-170.539 171.52z" />
<glyph unicode="&#xe618;" glyph-name="star" horiz-adv-x="975" d="M487.619 190.878l301.349-181.736-79.726 342.747 265.996 230.498-350.647 30.086-136.972 323.145-136.972-323.145-350.647-30.086 265.996-230.498-79.726-342.747 301.349 181.736z" />
<glyph unicode="&#xe619;" glyph-name="grid" d="M192 960h-128c-35.2 0-64-28.8-64-64v-128c0-35.2 28.8-64 64-64h128c35.2 0 64 28.8 64 64v128c0 35.2-28.8 64-64 64zM576 960h-128c-35.2 0-64-28.8-64-64v-128c0-35.2 28.8-64 64-64h128c35.2 0 64 28.8 64 64v128c0 35.2-28.8 64-64 64zM960 960h-128c-35.2 0-64-28.8-64-64v-128c0-35.2 28.8-64 64-64h128c35.2 0 64 28.8 64 64v128c0 35.2-28.8 64-64 64zM192 576h-128c-35.2 0-64-28.8-64-64v-128c0-35.2 28.8-64 64-64h128c35.2 0 64 28.8 64 64v128c0 35.2-28.8 64-64 64zM576 576h-128c-35.2 0-64-28.8-64-64v-128c0-35.2 28.8-64 64-64h128c35.2 0 64 28.8 64 64v128c0 35.2-28.8 64-64 64zM960 576h-128c-35.2 0-64-28.8-64-64v-128c0-35.2 28.8-64 64-64h128c35.2 0 64 28.8 64 64v128c0 35.2-28.8 64-64 64zM192 192h-128c-35.2 0-64-28.8-64-64v-128c0-35.2 28.8-64 64-64h128c35.2 0 64 28.8 64 64v128c0 35.2-28.8 64-64 64zM576 192h-128c-35.2 0-64-28.8-64-64v-128c0-35.2 28.8-64 64-64h128c35.2 0 64 28.8 64 64v128c0 35.2-28.8 64-64 64zM960 192h-128c-35.2 0-64-28.8-64-64v-128c0-35.2 28.8-64 64-64h128c35.2 0 64 28.8 64 64v128c0 35.2-28.8 64-64 64z" />
<glyph unicode="&#xe61a;" glyph-name="refresh" d="M892.064 330.816c12.32 39.36 19.424 80.992 19.424 124.288 0 231.104-186.56 419.232-416.928 422.208v-135.616c155.616-2.976 281.376-130.272 281.376-286.592 0-21.696-2.816-42.624-7.424-62.912l-126.816 62.912 88.32-262.368 262.304 88.384-100.256 49.696zM248.064 440.896c0 21.696 2.816 42.624 7.424 62.944l126.816-62.944-88.32 262.368-262.304-88.384 100.256-49.696c-12.288-39.36-19.424-80.992-19.424-124.32 0-231.136 186.56-419.2 416.96-422.208v135.616c-155.648 2.976-281.408 130.304-281.408 286.624z" />
<glyph unicode="&#xe61b;" glyph-name="jet" d="M136.192 156.16c0 0 54.886 51.2 74.547 28.058s-29.082-65.946-40.141-77.21c-11.264-11.264-79.053-23.962-91.136-73.114s-4.915 19.456 52.838 20.685c57.958 1.024 51.61-1.638 95.437 10.24s59.187 34.611 59.187 34.611 5.325-40.755-54.477-72.294c-59.802-31.539 37.069-3.482 76.186 17.818s62.464 70.246 62.464 70.246 3.072-26.214-36.454-91.75c0 0 159.744 91.341 101.786 235.315 0 0 1.843-72.499-48.538-131.277 0 0 9.216 56.934-6.758 63.693-11.469 4.915-36.659-88.064-77.21-92.774 0 0 29.082 41.574 18.432 56.525-15.155 21.299-87.45-38.707-87.45-38.707s3.686 53.043 79.462 98.714c0 0-29.491 7.782-61.645 1.024 0 0 56.115 46.899 123.699 41.37 0 0-36.864 24.166-71.475 18.842 0 0 14.336 28.877 87.245 26.419 0 0-107.52 55.296-211.149-40.55 0 0 58.778 28.672 93.389-4.506-0.205-0.205-119.194-9.011-138.24-101.376zM363.315 371.814l121.856-116.736c403.456 205.824 470.016 605.184 470.016 605.184s-303.923-45.67-591.872-488.448zM437.043 360.55l-26.624 21.504c283.648 371.712 460.8 409.6 460.8 409.6s-280.576-215.45-434.176-431.104zM508.723 107.827l-9.626 130.867c0 0 82.534 41.37 165.069 113.869zM214.835 397.619l131.072-14.336c0 0 27.853 48.333 119.808 159.744z" />
<glyph unicode="&#xe61c;" glyph-name="user" d="M851.481 250.954c-39.072 50.987-86.335 84.097-154.057 102.883l-63.453-222.157c0-20.464-16.755-37.216-37.216-37.216-20.455 0-37.21 16.753-37.21 37.216v176.765c0 25.674-20.845 46.519-46.519 46.519s-46.516-20.847-46.516-46.519v-176.765c0-20.464-16.755-37.216-37.212-37.216-20.464 0-37.218 16.753-37.218 37.216l-63.453 222.157c-67.723-18.969-114.985-51.895-154.053-102.883-15.446-20.095-23.839-60.471-24.388-82.063 0.185-5.581 0-12.095 0-18.601v-74.435c0-41.12 33.309-74.425 74.43-74.425h576.815c41.12 0 74.435 33.305 74.435 74.425v74.435c0 6.505-0.182 13.019 0 18.601-0.563 21.591-8.946 61.97-24.383 82.063zM317.649 697.706c0-108.665 67.744-268.315 195.375-268.315 125.413 0 195.371 159.65 195.371 268.315 0 108.661-87.454 196.862-195.371 196.862s-195.375-88.201-195.375-196.862z" />
<glyph unicode="&#xe61d;" glyph-name="search" d="M120.942 128.031l203.291 203.291c-38.651 53.090-61.716 118.249-61.716 188.955 0 177.713 144.047 321.759 321.759 321.759s321.759-144.047 321.759-321.759-144.047-321.759-321.759-321.759c-70.706 0-135.862 23.068-188.955 61.716l-203.291-203.291-71.089 71.089zM584.274 299.065c121.965 0 221.209 99.243 221.209 221.209s-99.243 221.209-221.209 221.209-221.209-99.243-221.209-221.209 99.243-221.209 221.209-221.209z" />
<glyph unicode="&#xe61e;" glyph-name="reset" horiz-adv-x="1013" d="M1011.457 476.745c-56.408-0.485-112.778-0.784-169.149-1.269 9.482-97.062-22.511-197.371-96.838-271.586-131.966-131.929-345.801-131.929-477.692 0-131.929 131.817-131.929 345.689 0 477.618 112.554 112.591 284.652 128.607 414.714 49.016-44.088-43.566-95.942-95.158-95.942-95.158-37.331-39.646 0.635-65.927 25.759-66.077h329.562c12.618 0 22.772 10.191 22.809 22.809v326.874c1.531 30.798-32.292 59.432-65.554 26.132 0 0-55.81-55.213-94.56-93.664-198.080 144.771-477.244 128.345-656.174-50.547-197.856-197.856-197.856-518.645 0-716.464 197.819-197.782 518.608-197.782 716.427 0 107.664 107.589 156.195 251.614 146.638 392.316z" />
<glyph unicode="&#xe900;" glyph-name="settings" d="M958.24 369.776l-36.504 39.208c0.040 0.344 0.032 0.68-0.008 1.192 0.784 8.744 1.304 17.552 1.648 26.368 0.080 2.544-0.024 5.264 0.024 7.808 0.072 6.76-0.024 13.296-0.328 19.824-0.128 2.856-0.28 5.512-0.464 8.352-0.152 4.36-0.376 8.664-0.704 13.216l36.608 38.936c17.464 18.6 49.168 43.296 39.464 66.808l-40.080 97.256c-9.704 23.536-49.552 18.6-75.032 19.488l-53.448 1.928c-4.040 4.832-8.392 9.424-12.576 14.088-0.16 0.176-0.352 0.448-0.552 0.696-1.488 1.56-2.744 3.256-4.248 4.792-2.264 2.464-4.872 4.816-7.208 7.216-3.384 3.408-6.752 6.872-10.224 10.168-5.696 5.48-11.704 10.648-17.624 15.776-0.24 0.248-0.624 0.456-0.832 0.624-0.32 0.312-0.608 0.664-0.928 0.984l-1.728 53.544c-0.784 25.352 4.2 65.272-19.176 75l-97.288 40.488c-23.408 9.744-48.272-21.976-66.816-39.28l-39.176-36.576c-8.784 0.88-17.504 1.336-26.232 1.672-2.44 0.096-4.896 0.048-7.504 0.032-5.624 0.048-11.296 0.216-17.080-0.008-7.304-0.232-14.608-0.688-21.888-1.32-0.936-0.048-1.872-0.048-2.608-0.112-0.52-0.104-0.912-0.024-1.44-0.128l-38.968 36.688c-18.568 17.368-43.296 49.168-66.808 39.48l-97.256-40.080c-23.536-9.696-18.56-49.64-19.496-75.048l-1.896-53.528c-0.584-0.44-1.168-1.048-1.712-1.584-6.392-5.328-12.664-10.832-18.76-16.56-2.248-2.208-4.416-4.432-6.616-6.664-4.328-4.216-8.672-8.568-12.824-13.040-2.128-2.32-4.088-4.672-6.16-7.040-2.816-3.056-5.568-6.072-8.264-9.296l-53.576-1.64c-25.352-0.792-65.272 4.192-75-19.192l-40.504-97.28c-9.736-23.416 21.936-48.192 39.24-66.736l36.584-39.184c-0.592-6.064-0.856-12.096-1.192-18.232 0.008-0.568-0.096-1.168-0.080-1.736-0.496-10.4-0.744-20.784-0.384-31.136 0.168-4.544 0.504-9.008 0.792-13.544 0.264-3.664 0.344-7.392 0.688-11.048-0.024-0.4 0.008-0.768 0.040-1.040l-36.656-39.072c-17.376-18.536-49.2-43.192-39.512-66.696l40.080-97.256c9.704-23.552 49.672-18.648 75.080-19.576l53.496-1.816c0.36-0.528 0.792-0.84 1.176-1.384 5.424-6.512 11.12-12.872 17.056-19.272 2.088-2.248 4.296-4.176 6.416-6.384 4.36-4.424 8.752-8.8 13.296-13.064 2.232-1.936 4.592-3.96 6.848-6.048 3.16-2.792 6.232-5.64 9.4-8.184l1.632-53.568c0.8-25.352-4.16-65.368 19.232-75.104l97.28-40.496c23.424-9.752 48.184 21.944 66.728 39.248l39.216 36.496c0.432-0.008 0.848 0.048 1.28 0.040 5.048-0.56 10.056-0.752 15.064-1.008 1.504-0.128 2.96-0.136 4.384-0.288 2.352-0.072 4.608-0.256 6.88-0.336 2.688-0.056 5.368 0.024 8.056 0.016 6.536-0.152 13.080-0.016 19.56 0.28 2.824 0.096 5.712 0.312 8.504 0.472 4.408 0.192 8.656 0.408 12.992 0.664l39.032-36.56c18.592-17.464 43.192-49.208 66.696-39.504l97.264 40.080c23.544 9.712 18.68 49.592 19.576 75.080l1.84 53.408c4.584 3.824 9 7.808 13.264 11.696 0.6 0.696 1.288 1.184 1.944 1.736 1.488 1.408 3.080 2.592 4.36 3.944 2.592 2.296 4.824 4.832 7.184 7.12 3.376 3.416 6.96 6.832 10.392 10.408 4.984 5.352 10 10.952 14.848 16.784 0.552 0.52 0.984 0.96 1.456 1.64 0.408 0.36 0.656 0.6 0.888 0.88l53.528 1.72c25.352 0.792 65.368-4.168 75.104 19.224l40.496 97.28c9.784 23.4-21.96 48.256-39.256 66.8zM726 448c0-118.184-95.816-214-214-214s-214 95.816-214 214 95.816 214 214 214 214-95.816 214-214z" />
<glyph unicode="&#xe901;" glyph-name="menu" d="M0 796.16c0 45.243 36.445 81.92 82.067 81.92h859.866c45.324 0 82.067-36.361 82.067-81.92 0-45.243-36.445-81.92-82.067-81.92h-859.866c-45.324 0-82.067 36.361-82.067 81.92v0zM0 468.48c0 45.243 36.445 81.92 82.067 81.92h859.866c45.324 0 82.067-36.361 82.067-81.92 0-45.243-36.445-81.92-82.067-81.92h-859.866c-45.324 0-82.067 36.361-82.067 81.92v0zM0 140.8c0 45.243 36.445 81.92 82.067 81.92h859.866c45.324 0 82.067-36.361 82.067-81.92 0-45.243-36.445-81.92-82.067-81.92h-859.866c-45.324 0-82.067 36.361-82.067 81.92v0z" />
</font>
</defs>
</svg>
